<svg width="637.0574462890625px" height="122.021240234375px" xmlns="http://www.w3.org/2000/svg" viewBox="-68.52872314453123 13.9893798828125 637.0574462890625 122.021240234375" style="background: rgba(89, 104, 134, 0);" preserveAspectRatio="xMidYMid"><defs><filter id="editing-hover" x="-100%" y="-100%" width="300%" height="300%"><feFlood flood-color="rgba(5.496729559748431%,21.141732880190602%,33.904761904761905%,0.66)" result="flood"></feFlood><feComposite operator="in" in2="SourceAlpha" in="flood" result="shadow"></feComposite><feOffset dx="-1.9" dy="-2" in="SourceGraphic" result="offset-1"></feOffset><feOffset dx="1.9" dy="2" in="shadow" result="offset-2"></feOffset><feMerge><feMergeNode in="offset-2"></feMergeNode><feMergeNode in="offset-1"></feMergeNode></feMerge></filter></defs><g filter="url(#editing-hover)"><g transform="translate(23.47937560081482, 98.43781280517578)"><path d="M28.16 1.28L28.16 1.28L28.16 1.28Q20.42 1.28 20.42-4.74L20.42-4.74L20.42-4.74Q20.48-6.40 20.99-9.22L20.99-9.22L22.14-15.10L22.14-15.10Q23.87-23.42 23.87-25.28L23.87-25.28L23.87-25.28Q23.87-28.99 21.70-28.99L21.70-28.99L21.70-28.99Q18.05-28.99 16.13-19.46L16.13-19.46L12.35 0L-0.51 1.28L6.14-32.70L16.64-33.92L15.62-27.65L15.62-27.65Q18.62-33.92 27.84-33.92L27.84-33.92L27.84-33.92Q32.32-33.92 34.21-32.03L34.21-32.03L34.21-32.03Q36.10-30.14 36.10-25.92L36.10-25.92L36.10-25.92Q36.10-21.95 34.05-12.67L34.05-12.67L34.05-12.67Q33.09-8.51 33.09-6.94L33.09-6.94L33.09-6.94Q33.09-5.38 33.95-4.48L33.95-4.48L33.95-4.48Q34.82-3.58 36.10-3.46L36.10-3.46L36.10-3.46Q35.46-1.28 33.25 0L33.25 0L33.25 0Q31.04 1.28 28.16 1.28ZM73.41-7.10L73.41-7.10L73.41-7.10Q73.41-4.29 76.29-3.46L76.29-3.46L76.29-3.46Q75.58-1.09 72.83 0.19L72.83 0.19L72.83 0.19Q70.53 1.28 68 1.28L68 1.28L68 1.28Q65.47 1.28 64.16 0.61L64.16 0.61L64.16 0.61Q62.85-0.06 62.14-1.15L62.14-1.15L62.14-1.15Q60.99-2.82 60.99-5.95L60.99-5.95L60.99-5.95Q60.99-7.81 62.02-12.93L62.02-12.93L62.91-17.79L62.91-17.79Q64-23.36 64-25.41L64-25.41L64-25.41Q64-28.99 62.02-28.99L62.02-28.99L62.02-28.99Q59.52-28.99 57.92-25.34L57.92-25.34L57.92-25.34Q57.28-23.94 56.83-21.82L56.83-21.82L52.48 0L39.62 1.28L48.64-44.80L61.50-46.08L60.99-43.52L60.99-43.52Q59.20-33.66 57.66-30.34L57.66-30.34L57.66-30.34Q61.25-33.92 67.84-33.92L67.84-33.92L67.84-33.92Q74.82-33.92 76.10-29.31L76.10-29.31L76.10-29.31Q76.54-27.84 76.54-26.56L76.54-26.56L76.54-26.56Q76.54-25.28 76.45-24.29L76.45-24.29L76.45-24.29Q76.35-23.30 76.03-21.50L76.03-21.50L75.20-16.90L73.73-9.66L73.73-9.66Q73.41-8.19 73.41-7.10ZM95.42 1.28L95.42 1.28L95.42 1.28Q81.34 1.28 81.34-11.97L81.34-11.97L81.34-11.97Q81.34-21.38 86.53-27.46L86.53-27.46L86.53-27.46Q92.03-33.92 101.57-33.92L101.57-33.92L101.57-33.92Q108.48-33.92 112-30.72L112-30.72L112-30.72Q115.52-27.52 115.52-20.80L115.52-20.80L115.52-20.80Q115.52-10.56 110.02-4.61L110.02-4.61L110.02-4.61Q104.64 1.28 95.42 1.28ZM97.09-26.56L97.09-26.56L97.09-26.56Q96.32-24.83 95.71-22.24L95.71-22.24L95.71-22.24Q95.10-19.65 94.34-15.55L94.34-15.55L94.34-15.55Q93.57-11.46 93.57-6.40L93.57-6.40L93.57-6.40Q93.57-4.74 94.11-3.65L94.11-3.65L94.11-3.65Q94.66-2.56 96.13-2.56L96.13-2.56L96.13-2.56Q97.60-2.56 98.53-3.26L98.53-3.26L98.53-3.26Q99.46-3.97 100.16-5.63L100.16-5.63L100.16-5.63Q101.44-8.58 102.46-14.05L102.46-14.05L102.46-14.05Q103.49-19.52 103.58-21.89L103.58-21.89L103.58-21.89Q103.68-24.26 103.68-26.02L103.68-26.02L103.68-26.02Q103.68-27.78 103.17-28.93L103.17-28.93L103.17-28.93Q102.66-30.08 101.22-30.08L101.22-30.08L101.22-30.08Q99.78-30.08 98.82-29.18L98.82-29.18L98.82-29.18Q97.86-28.29 97.09-26.56ZM120.90-39.68L120.90-39.68L120.90-39.68Q121.79-41.47 123.74-42.46L123.74-42.46L123.74-42.46Q125.70-43.46 128.38-43.46L128.38-43.46L128.38-43.46Q132.61-43.46 135.14-40.42L135.14-40.42L135.14-40.42Q137.66-37.38 137.66-30.72L137.66-30.72L137.66-7.87L152.32-42.18L159.87-42.18L161.60-9.79L161.41-7.94L176.64-42.18L185.41-42.18L164.93 0L151.30 0L150.02-19.46L141.57 0L126.14 0L124.22-30.72L124.22-30.72Q124.03-34.18 123.10-36.45L123.10-36.45L123.10-36.45Q122.18-38.72 120.90-39.68ZM195.52 1.28L195.52 1.28L195.52 1.28Q181.44 1.28 181.44-11.97L181.44-11.97L181.44-11.97Q181.44-21.38 186.62-27.46L186.62-27.46L186.62-27.46Q192.13-33.92 201.66-33.92L201.66-33.92L201.66-33.92Q208.58-33.92 212.10-30.72L212.10-30.72L212.10-30.72Q215.62-27.52 215.62-20.80L215.62-20.80L215.62-20.80Q215.62-10.56 210.11-4.61L210.11-4.61L210.11-4.61Q204.74 1.28 195.52 1.28ZM197.18-26.56L197.18-26.56L197.18-26.56Q196.42-24.83 195.81-22.24L195.81-22.24L195.81-22.24Q195.20-19.65 194.43-15.55L194.43-15.55L194.43-15.55Q193.66-11.46 193.66-6.40L193.66-6.40L193.66-6.40Q193.66-4.74 194.21-3.65L194.21-3.65L194.21-3.65Q194.75-2.56 196.22-2.56L196.22-2.56L196.22-2.56Q197.70-2.56 198.62-3.26L198.62-3.26L198.62-3.26Q199.55-3.97 200.26-5.63L200.26-5.63L200.26-5.63Q201.54-8.58 202.56-14.05L202.56-14.05L202.56-14.05Q203.58-19.52 203.68-21.89L203.68-21.89L203.68-21.89Q203.78-24.26 203.78-26.02L203.78-26.02L203.78-26.02Q203.78-27.78 203.26-28.93L203.26-28.93L203.26-28.93Q202.75-30.08 201.31-30.08L201.31-30.08L201.31-30.08Q199.87-30.08 198.91-29.18L198.91-29.18L198.91-29.18Q197.95-28.29 197.18-26.56ZM239.42-17.98L239.42-17.98L239.42-17.98Q241.73-22.08 241.73-26.24L241.73-26.24L241.73-26.24Q241.73-28.99 239.74-28.99L239.74-28.99L239.74-28.99Q238.21-28.99 236.61-26.37L236.61-26.37L236.61-26.37Q234.94-23.74 234.43-20.35L234.43-20.35L231.10 0L217.86 1.28L224.38-32.64L234.94-33.92L233.79-27.46L233.79-27.46Q236.93-33.92 243.97-33.92L243.97-33.92L243.97-33.92Q247.68-33.92 249.70-32L249.70-32L249.70-32Q251.71-30.08 251.71-26.14L251.71-26.14L251.71-26.14Q251.71-22.21 249.12-19.71L249.12-19.71L249.12-19.71Q246.53-17.22 242.11-17.22L242.11-17.22L242.11-17.22Q240.19-17.22 239.42-17.98ZM269.25-30.34L269.25-30.34L269.25-30.34Q272.70-33.92 280.00-33.92L280.00-33.92L280.00-33.92Q284.03-33.92 286.24-31.78L286.24-31.78L286.24-31.78Q288.45-29.63 288.45-25.70L288.45-25.70L288.45-25.70Q288.45-21.76 286.24-18.98L286.24-18.98L286.24-18.98Q284.03-16.19 279.94-15.04L279.94-15.04L279.94-15.04Q280.26-13.76 280.70-12.42L280.70-12.42L281.60-9.86L281.60-9.86Q282.82-6.59 283.78-5.44L283.78-5.44L283.78-5.44Q284.74-4.29 286.02-3.90L286.02-3.90L286.02-3.90Q285.31-1.28 282.75 0.13L282.75 0.13L282.75 0.13Q280.70 1.28 277.89 1.28L277.89 1.28L277.89 1.28Q269.63 1.28 268.54-11.46L268.54-11.46L268.54-11.46Q268.35-13.25 268.35-15.04L268.35-15.04L268.35-15.04Q271.55-15.94 273.79-18.94L273.79-18.94L273.79-18.94Q276.03-21.95 276.03-25.47L276.03-25.47L276.03-25.47Q276.03-28.99 273.54-28.99L273.54-28.99L273.54-28.99Q271.74-28.99 270.34-27.01L270.34-27.01L270.34-27.01Q268.93-25.02 268.29-21.63L268.29-21.63L264.06 0L251.14 1.28L260.10-44.80L272.96-46.08L271.49-38.46L271.49-38.46Q270.53-33.09 269.25-30.34ZM310.53-22.46L310.53-22.46L310.53-22.46Q311.42-24.83 311.42-26.88L311.42-26.88L311.42-26.88Q311.42-30.66 308.35-30.66L308.35-30.66L308.35-30.66Q306.75-30.66 305.44-29.22L305.44-29.22L305.44-29.22Q304.13-27.78 304.13-25.98L304.13-25.98L304.13-25.98Q304.13-24.70 305.15-23.68L305.15-23.68L305.15-23.68Q306.62-22.27 310.40-19.97L310.40-19.97L310.40-19.97Q314.18-17.66 315.62-15.78L315.62-15.78L315.62-15.78Q317.06-13.89 317.06-11.30L317.06-11.30L317.06-11.30Q317.06-8.70 315.81-6.34L315.81-6.34L315.81-6.34Q314.56-3.97 312.32-2.30L312.32-2.30L312.32-2.30Q307.52 1.28 299.84 1.28L299.84 1.28L299.84 1.28Q295.68 1.28 292.48-0.90L292.48-0.90L292.48-0.90Q289.28-3.01 289.28-5.50L289.28-5.50L289.28-5.50Q289.28-8 291.10-9.47L291.10-9.47L291.10-9.47Q292.93-10.94 295.62-10.94L295.62-10.94L295.62-10.94Q298.30-10.94 299.97-9.92L299.97-9.92L299.97-9.92Q299.14-7.81 299.14-6.40L299.14-6.40L299.14-6.40Q299.14-2.18 302.72-2.18L302.72-2.18L302.72-2.18Q304.26-2.18 305.28-3.14L305.28-3.14L305.28-3.14Q306.30-4.10 306.30-5.76L306.30-5.76L306.30-5.76Q306.30-9.02 300.80-12.48L300.80-12.48L300.80-12.48Q296.32-15.42 295.30-16.58L295.30-16.58L295.30-16.58Q293.57-18.62 293.57-21.18L293.57-21.18L293.57-21.18Q293.57-23.74 294.78-26.18L294.78-26.18L294.78-26.18Q296-28.61 298.24-30.34L298.24-30.34L298.24-30.34Q302.91-33.92 311.04-33.92L311.04-33.92L311.04-33.92Q315.20-33.92 317.66-32.26L317.66-32.26L317.66-32.26Q320.13-30.59 320.13-27.78L320.13-27.78L320.13-27.78Q320.13-24.96 318.43-23.36L318.43-23.36L318.43-23.36Q316.74-21.76 313.66-21.76L313.66-21.76L313.66-21.76Q311.55-21.76 310.53-22.46ZM354.69-7.10L354.69-7.10L354.69-7.10Q354.69-4.29 357.57-3.46L357.57-3.46L357.57-3.46Q356.86-1.09 354.11 0.19L354.11 0.19L354.11 0.19Q351.81 1.28 349.28 1.28L349.28 1.28L349.28 1.28Q346.75 1.28 345.44 0.61L345.44 0.61L345.44 0.61Q344.13-0.06 343.42-1.15L343.42-1.15L343.42-1.15Q342.27-2.82 342.27-5.95L342.27-5.95L342.27-5.95Q342.27-7.81 343.30-12.93L343.30-12.93L344.19-17.79L344.19-17.79Q345.28-23.36 345.28-25.41L345.28-25.41L345.28-25.41Q345.28-28.99 343.30-28.99L343.30-28.99L343.30-28.99Q340.80-28.99 339.20-25.34L339.20-25.34L339.20-25.34Q338.56-23.94 338.11-21.82L338.11-21.82L333.76 0L320.90 1.28L329.92-44.80L342.78-46.08L342.27-43.52L342.27-43.52Q340.48-33.66 338.94-30.34L338.94-30.34L338.94-30.34Q342.53-33.92 349.12-33.92L349.12-33.92L349.12-33.92Q356.10-33.92 357.38-29.31L357.38-29.31L357.38-29.31Q357.82-27.84 357.82-26.56L357.82-26.56L357.82-26.56Q357.82-25.28 357.73-24.29L357.73-24.29L357.73-24.29Q357.63-23.30 357.31-21.50L357.31-21.50L356.48-16.90L355.01-9.66L355.01-9.66Q354.69-8.19 354.69-7.10ZM388.67-10.82L388.67-10.82L388.67-10.82Q390.27-9.73 390.27-7.33L390.27-7.33L390.27-7.33Q390.27-4.93 389.06-3.39L389.06-3.39L389.06-3.39Q387.84-1.86 385.86-0.83L385.86-0.83L385.86-0.83Q381.76 1.28 377.34 1.28L377.34 1.28L377.34 1.28Q372.93 1.28 370.34 0.32L370.34 0.32L370.34 0.32Q367.74-0.64 366.02-2.43L366.02-2.43L366.02-2.43Q362.62-5.82 362.62-12.03L362.62-12.03L362.62-12.03Q362.62-21.70 367.87-27.58L367.87-27.58L367.87-27.58Q373.50-33.92 383.30-33.92L383.30-33.92L383.30-33.92Q389.38-33.92 392.38-31.36L392.38-31.36L392.38-31.36Q394.62-29.44 394.62-26.30L394.62-26.30L394.62-26.30Q394.62-15.04 375.17-15.04L375.17-15.04L375.17-15.04Q374.91-13.38 374.91-11.97L374.91-11.97L374.91-11.97Q374.91-9.02 376.22-7.90L376.22-7.90L376.22-7.90Q377.54-6.78 379.97-6.78L379.97-6.78L379.97-6.78Q382.40-6.78 384.99-7.90L384.99-7.90L384.99-7.90Q387.58-9.02 388.67-10.82ZM375.62-17.79L375.62-17.79L375.62-17.79Q380.16-17.79 382.78-20.61L382.78-20.61L382.78-20.61Q385.41-23.30 385.41-27.58L385.41-27.58L385.41-27.58Q385.41-29.06 384.86-29.86L384.86-29.86L384.86-29.86Q384.32-30.66 383.23-30.66L383.23-30.66L383.23-30.66Q382.14-30.66 381.22-30.24L381.22-30.24L381.22-30.24Q380.29-29.82 379.33-28.42L379.33-28.42L379.33-28.42Q376.96-25.22 375.62-17.79ZM422.72-10.82L422.72-10.82L422.72-10.82Q424.32-9.73 424.32-7.33L424.32-7.33L424.32-7.33Q424.32-4.93 423.10-3.39L423.10-3.39L423.10-3.39Q421.89-1.86 419.90-0.83L419.90-0.83L419.90-0.83Q415.81 1.28 411.39 1.28L411.39 1.28L411.39 1.28Q406.98 1.28 404.38 0.32L404.38 0.32L404.38 0.32Q401.79-0.64 400.06-2.43L400.06-2.43L400.06-2.43Q396.67-5.82 396.67-12.03L396.67-12.03L396.67-12.03Q396.67-21.70 401.92-27.58L401.92-27.58L401.92-27.58Q407.55-33.92 417.34-33.92L417.34-33.92L417.34-33.92Q423.42-33.92 426.43-31.36L426.43-31.36L426.43-31.36Q428.67-29.44 428.67-26.30L428.67-26.30L428.67-26.30Q428.67-15.04 409.22-15.04L409.22-15.04L409.22-15.04Q408.96-13.38 408.96-11.97L408.96-11.97L408.96-11.97Q408.96-9.02 410.27-7.90L410.27-7.90L410.27-7.90Q411.58-6.78 414.02-6.78L414.02-6.78L414.02-6.78Q416.45-6.78 419.04-7.90L419.04-7.90L419.04-7.90Q421.63-9.02 422.72-10.82ZM409.66-17.79L409.66-17.79L409.66-17.79Q414.21-17.79 416.83-20.61L416.83-20.61L416.83-20.61Q419.46-23.30 419.46-27.58L419.46-27.58L419.46-27.58Q419.46-29.06 418.91-29.86L418.91-29.86L418.91-29.86Q418.37-30.66 417.28-30.66L417.28-30.66L417.28-30.66Q416.19-30.66 415.26-30.24L415.26-30.24L415.26-30.24Q414.34-29.82 413.38-28.42L413.38-28.42L413.38-28.42Q411.01-25.22 409.66-17.79ZM431.87-6.40L431.87-6.40L431.87-6.40Q431.87-8.13 432.77-12.48L432.77-12.48L436.16-29.76L432.38-29.76L432.64-31.68L432.64-31.68Q440.32-33.98 447.74-39.62L447.74-39.62L450.82-39.62L449.28-32.64L454.27-32.64L453.70-29.76L448.77-29.76L445.50-12.48L445.50-12.48Q444.67-8.51 444.67-7.17L444.67-7.17L444.67-7.17Q444.67-4.10 447.36-3.46L447.36-3.46L447.36-3.46Q446.72-1.28 444.42 0L444.42 0L444.42 0Q442.11 1.28 438.85 1.28L438.85 1.28L438.85 1.28Q435.58 1.28 433.73-0.77L433.73-0.77L433.73-0.77Q431.87-2.82 431.87-6.40Z" fill="#eb6a6a"></path></g></g><style>text {
  font-size: 64px;
  font-family: Arial Black;
  dominant-baseline: central;
  text-anchor: middle;
}</style></svg>